<?xml version="1.0" encoding="UTF-8" standalone="no"?>
<svg
   width="480"
   height="480"
   viewBox="0 0 480 480"
   fill="none"
   version="1.1"
   id="svg10"
   sodipodi:docname="about.svg"
   inkscape:version="1.3.2 (091e20ef0f, 2023-11-25, custom)"
   xmlns:inkscape="http://www.inkscape.org/namespaces/inkscape"
   xmlns:sodipodi="http://sodipodi.sourceforge.net/DTD/sodipodi-0.dtd"
   xmlns="http://www.w3.org/2000/svg"
   xmlns:svg="http://www.w3.org/2000/svg">
  <defs
     id="defs14" />
  <sodipodi:namedview
     id="namedview12"
     pagecolor="#ffffff"
     bordercolor="#666666"
     borderopacity="1.0"
     inkscape:showpageshadow="2"
     inkscape:pageopacity="0.0"
     inkscape:pagecheckerboard="false"
     inkscape:deskcolor="#d1d1d1"
     showgrid="false"
     inkscape:zoom="1.6167702"
     inkscape:cx="232.25316"
     inkscape:cy="236.89204"
     inkscape:window-width="1894"
     inkscape:window-height="1054"
     inkscape:window-x="0"
     inkscape:window-y="0"
     inkscape:window-maximized="1"
     inkscape:current-layer="svg10" />
  <path
     d="m 240,472.45291 c 64.18955,0 122.30278,-26.01845 164.36862,-68.08429 C 446.43446,362.30278 472.45291,304.18955 472.45291,240 c 0,-64.18955 -26.01845,-122.30278 -68.08429,-164.369083 C 362.30278,33.565308 304.18955,7.5470858 240,7.5470858 175.81045,7.5470858 117.69722,33.565308 75.630917,75.630917 33.565308,117.69722 7.5470858,175.81045 7.5470858,240 c 0,64.18955 26.0182222,122.30278 68.0838312,164.36862 C 117.69722,446.43446 175.81045,472.45291 240,472.45291 Z"
     fill="#280f89"
     stroke="#000000"
     stroke-width="11.6226"
     stroke-linejoin="round"
     id="path4"
     style="display:inline" />
  <path
     d="M 240,293.75357 V 107.79124"
     stroke="#ffffff"
     stroke-width="58.1132"
     stroke-linecap="round"
     stroke-linejoin="round"
     id="path6"
     sodipodi:nodetypes="cc"
     style="display:inline" />
  <path
     fill-rule="evenodd"
     clip-rule="evenodd"
     d="m 240,398.35739 c 16.04739,0 29.05661,-13.00923 29.05661,-29.05662 0,-16.04739 -13.00922,-29.05661 -29.05661,-29.05661 -16.04739,0 -29.05661,13.00922 -29.05661,29.05661 0,16.04739 13.00922,29.05662 29.05661,29.05662 z"
     fill="#ffffff"
     id="path8"
     style="display:inline;stroke-width:11.6226" />
</svg>
