<svg version="1.1" viewBox="0 0 480 480" xmlns="http://www.w3.org/2000/svg">
 <path d="m219.04-2.3403c-1.755 0.88429-2.0137 0.54062-2.4452 0.65619l-171.14 98.811c-1.3532 4.1646-1.6297 2.8215-2.4452 4.2339v265.31c1.6156 2.8701 1.6312 2.8223 2.4452 4.2307l10.266 8.3989 173.29 100.05c0.0904-0.34166 0.53661-0.0301 2.4421 0.65317h17.11c2.022-0.58584 2.289-0.91946 2.442-0.65317 57.764-33.347 115.53-66.699 173.29-100.05l10.269-8.3989c1.3722-3.3802 1.6286-2.8211 2.4417-4.2307v-265.31c-3.0554-3.5667-1.6274-2.8211-2.4417-4.2339l-171.14-98.811c-2.1052 0.00955-2.0741-0.55771-2.4452-0.65619z" color="#000000" fill="#ef2929" stroke-width="1.601" style="-inkscape-stroke:none"/>
 <path d="m251.12 14.65 5.5666-9.6331m165.58 108.45 5.5602-9.6331m-370.11 9.6331v12.846m0-12.846-5.5602-9.6331m176.71-89.178-5.5666-9.6331m27.811 19.515v-9.8813m171.15 111.65v-12.846m-193.4-88.93v-9.8813m0 9.8813-51.348 29.642m73.592-29.642h-22.244m193.4 98.811-171.15-98.811m-73.592 29.642-119.8 69.169m118.09-65.211 182.27 105.23m-105.26 58.543v-119.31m-77.017-47.427v2.9651m51.348 163.78v-134.13m-175 16.053v19.273l171.14 98.806h33.377l171.14-98.806v-19.273l-171.14-98.811h-33.377l-171.14 98.811m179.28 371.28h17.111m-19.253-1.2359 2.1421 1.2359m-173.29-100.05 171.15 98.811m21.396 0-2.142 1.2359m-19.253-1.2359h21.396m-21.396-2.4702v2.4702m-171.15-101.28v2.4702m363.69-2.4702v2.4702m-171.14 96.341v2.4702l171.14-98.811m-192.54 96.341h21.396m-31.664-5.9284 10.269 5.9284m-181.41-104.74 171.14 98.811m-171.14-339.91 171.14 98.813m41.933 241.1-10.269 5.9284m-31.664-247.03h41.933m-41.933 0v241.1m-171.14-364.12v265.31m171.14-364.12-171.14 98.811m213.07-98.811h-41.933m213.07 98.811-171.14-98.811m171.14 123.02v-24.21m0 24.21v241.1m-171.14-142.29v241.1l171.14-98.811m-171.14-142.29 171.14-98.813" fill="none" stroke="#280000" stroke-width="10"/>
</svg>
