<?xml version="1.0" encoding="UTF-8" standalone="no"?>
<!-- Created with Inkscape (http://www.inkscape.org/) -->

<svg
   width="64"
   height="64"
   viewBox="0 0 64 64"
   version="1.1"
   id="svg1"
   inkscape:version="1.4 (e7c3feb100, 2024-10-09)"
   sodipodi:docname="corner.svg"
   xml:space="preserve"
   xmlns:inkscape="http://www.inkscape.org/namespaces/inkscape"
   xmlns:sodipodi="http://sodipodi.sourceforge.net/DTD/sodipodi-0.dtd"
   xmlns:xlink="http://www.w3.org/1999/xlink"
   xmlns="http://www.w3.org/2000/svg"
   xmlns:svg="http://www.w3.org/2000/svg"
   xmlns:rdf="http://www.w3.org/1999/02/22-rdf-syntax-ns#"
   xmlns:cc="http://creativecommons.org/ns#"
   xmlns:dc="http://purl.org/dc/elements/1.1/"><title
     id="title6">FreeGrid - Corner Connector</title><sodipodi:namedview
     id="namedview1"
     pagecolor="#323232"
     bordercolor="#ffffff"
     borderopacity="1"
     inkscape:showpageshadow="0"
     inkscape:pageopacity="0"
     inkscape:pagecheckerboard="1"
     inkscape:deskcolor="#191919"
     inkscape:document-units="px"
     showgrid="true"
     inkscape:zoom="2.828427"
     inkscape:cx="33.764351"
     inkscape:cy="2.6516506"
     inkscape:window-width="1290"
     inkscape:window-height="999"
     inkscape:window-x="0"
     inkscape:window-y="0"
     inkscape:window-maximized="1"
     inkscape:current-layer="svg1"
     showguides="true"
     inkscape:lockguides="false"
     guidecolor="#ffff00"
     guideopacity="0.6"
     guidehicolor="#ff00ff"
     guidehiopacity="0.50196078"><inkscape:grid
       id="grid1"
       units="px"
       originx="0"
       originy="0"
       spacingx="2"
       spacingy="2"
       empcolor="#0099e5"
       empopacity="0.30196078"
       color="#0099e5"
       opacity="0.14901961"
       empspacing="4"
       enabled="true"
       visible="true" /><sodipodi:guide
       position="-2,62"
       orientation="0,1"
       id="guide5"
       inkscape:locked="false"
       inkscape:label="top margin"
       inkscape:color="rgb(255,255,0)" /><sodipodi:guide
       position="64,2"
       orientation="0,1"
       id="guide6"
       inkscape:locked="false"
       inkscape:label="bottom margin"
       inkscape:color="rgb(255,255,0)" /><sodipodi:guide
       position="2,-2"
       orientation="-1,0"
       id="guide7"
       inkscape:locked="false"
       inkscape:label="right margin"
       inkscape:color="rgb(255,255,0)" /><sodipodi:guide
       position="62,64"
       orientation="-1,0"
       id="guide8"
       inkscape:locked="false"
       inkscape:label="left margin"
       inkscape:color="rgb(255,255,0)" /><sodipodi:guide
       position="64,64"
       orientation="0.70710678,-0.70710678"
       id="guide1"
       inkscape:locked="false" /><sodipodi:guide
       position="0,64"
       orientation="0.70710678,0.70710678"
       id="guide2"
       inkscape:label=""
       inkscape:locked="false"
       inkscape:color="rgb(255,255,0)" /></sodipodi:namedview><defs
     id="defs1"><linearGradient
       id="linearGradient17"
       inkscape:collect="always"
       inkscape:label="Plum gradient"><stop
         style="stop-color:#ad7fa8;stop-opacity:1;"
         offset="0"
         id="stop17" /><stop
         style="stop-color:#75507b;stop-opacity:1;"
         offset="1"
         id="stop18" /></linearGradient><linearGradient
       inkscape:collect="always"
       xlink:href="#linearGradient17"
       id="linearGradient6"
       x1="-425.72656"
       y1="-440.85275"
       x2="425.72656"
       y2="440.85275"
       gradientUnits="userSpaceOnUse" /></defs><metadata
     id="metadata1"><rdf:RDF><cc:Work
         rdf:about=""><cc:license
           rdf:resource="http://creativecommons.org/licenses/by-nc-sa/4.0/" /><dc:creator><cc:Agent><dc:title>hasecilu</dc:title></cc:Agent></dc:creator><dc:subject><rdf:Bag><rdf:li>FreeCAD</rdf:li><rdf:li>command</rdf:li></rdf:Bag></dc:subject><dc:description>Template file to create icons for FreeCAD commands.</dc:description><dc:date>2024</dc:date><dc:rights><cc:Agent><dc:title>FreeCAD LGPL2+</dc:title></cc:Agent></dc:rights><dc:identifier>FreeCAD/src/</dc:identifier><dc:publisher><cc:Agent><dc:title>FreeCAD</dc:title></cc:Agent></dc:publisher><dc:relation>https://wiki.freecad.org/Artwork</dc:relation><dc:title>FreeGrid - Corner Connector</dc:title></cc:Work><cc:License
         rdf:about="http://creativecommons.org/licenses/by-nc-sa/4.0/"><cc:permits
           rdf:resource="http://creativecommons.org/ns#Reproduction" /><cc:permits
           rdf:resource="http://creativecommons.org/ns#Distribution" /><cc:requires
           rdf:resource="http://creativecommons.org/ns#Notice" /><cc:requires
           rdf:resource="http://creativecommons.org/ns#Attribution" /><cc:prohibits
           rdf:resource="http://creativecommons.org/ns#CommercialUse" /><cc:permits
           rdf:resource="http://creativecommons.org/ns#DerivativeWorks" /><cc:requires
           rdf:resource="http://creativecommons.org/ns#ShareAlike" /></cc:License></rdf:RDF></metadata><path
     id="path37"
     style="stroke:#5c3566;display:inline;fill:#ad7fa8;fill-opacity:1;stroke-width:47.1484;stroke-dasharray:none;stroke-opacity:1"
     d="M -77.678267,388.39134 H 77.678267 M -388.39134,77.678267 V -77.678267 M 77.678267,-388.39134 H -77.678267 M -186.42784,-497.1409 -77.678267,-388.39134 m -108.749573,-295.1774 v 186.42784 m -170.89219,-186.42784 h 170.89219 m -170.89219,326.24871 v -326.24871 m -326.24871,326.24871 h 326.24871 m -326.24871,170.89219 v -170.89219 m 186.42784,170.89219 H -683.56874 M -388.39134,-77.678267 -497.1409,-186.42784 M -186.42784,497.1409 -77.678267,388.39134 M -186.42784,683.56874 V 497.1409 m -170.89219,186.42784 h 170.89219 M -357.32003,357.32003 V 683.56874 M -683.56874,357.32003 h 326.24871 M -683.56874,186.42784 V 357.32003 M -497.1409,186.42784 H -683.56874 M -388.39134,77.678267 -497.1409,186.42784 M 186.42784,497.1409 77.678267,388.39134 M 186.42784,683.56874 V 497.1409 M 357.32003,683.56874 H 186.42784 M 357.32003,357.32003 V 683.56874 M 683.56874,357.32003 H 357.32003 M 683.56874,186.42784 V 357.32003 M 497.1409,186.42784 H 683.56874 M 388.39134,77.678267 497.1409,186.42784 M 388.39134,77.678267 V -77.678267 M 186.42784,-497.1409 77.678267,-388.39134 M 186.42784,-683.56874 V -497.1409 M 357.32003,-683.56874 H 186.42784 m 170.89219,326.24871 v -326.24871 m 326.24871,326.24871 H 357.32003 m 326.24871,170.89219 V -357.32003 M 497.1409,-186.42784 H 683.56874 M 388.39134,-77.678267 497.1409,-186.42784 M 388.39134,77.678267 V -77.678267 L 497.1409,-186.42784 H 683.56874 V -357.32003 H 357.32003 V -683.56874 H 186.42784 V -497.1409 L 77.678267,-388.39134 H -77.678267 L -186.42784,-497.1409 v -186.42784 h -170.89219 v 326.24871 h -326.24871 v 170.89219 h 186.42784 l 108.74956,108.749573 V 77.678267 L -497.1409,186.42784 h -186.42784 v 170.89219 h 326.24871 v 326.24871 h 170.89219 V 497.1409 L -77.678267,388.39134 H 77.678267 L 186.42784,497.1409 V 683.56874 H 357.32003 V 357.32003 H 683.56874 V 186.42784 H 497.1409 L 388.39134,77.678267"
     transform="matrix(0.04242424,0,0,0.04242424,31.999999,31.999999)"
     inkscape:label="main" /><path
     id="path3"
     style="display:inline;fill:url(#linearGradient6);fill-opacity:1;stroke:none;stroke-width:47.1484;stroke-dasharray:none;stroke-opacity:1"
     inkscape:label="gradient"
     sodipodi:type="inkscape:offset"
     inkscape:radius="-70.711205"
     inkscape:original="M -357.32031 -683.56836 L -357.32031 -357.32031 L -683.56836 -357.32031 L -683.56836 -186.42773 L -497.14062 -186.42773 L -388.39062 -77.677734 L -388.39062 77.677734 L -497.14062 186.42773 L -683.56836 186.42773 L -683.56836 357.32031 L -357.32031 357.32031 L -357.32031 683.56836 L -186.42773 683.56836 L -186.42773 497.14062 L -77.677734 388.39062 L 77.677734 388.39062 L 186.42773 497.14062 L 186.42773 683.56836 L 357.32031 683.56836 L 357.32031 357.32031 L 683.56836 357.32031 L 683.56836 186.42773 L 497.14062 186.42773 L 388.39062 77.677734 L 388.39062 -77.677734 L 497.14062 -186.42773 L 683.56836 -186.42773 L 683.56836 -357.32031 L 357.32031 -357.32031 L 357.32031 -683.56836 L 186.42773 -683.56836 L 186.42773 -497.14062 L 77.677734 -388.39062 L -77.677734 -388.39062 L -186.42773 -497.14062 L -186.42773 -683.56836 L -357.32031 -683.56836 z "
     d="m -286.60937,-612.85742 v 255.53711 a 70.718276,70.718276 0 0 1 -70.71094,70.71094 h -255.53711 v 29.4707 h 115.7168 a 70.718276,70.718276 0 0 1 50,20.71094 l 108.75,108.75 a 70.718276,70.718276 0 0 1 20.71093,49.999996 V 77.677734 a 70.718276,70.718276 0 0 1 -20.71093,49.999996 l -108.75,108.75 a 70.718276,70.718276 0 0 1 -50,20.71094 h -115.7168 v 29.4707 h 255.53711 a 70.718276,70.718276 0 0 1 70.71094,70.71094 v 255.53711 h 29.4707 v -115.7168 a 70.718276,70.718276 0 0 1 20.71094,-50 l 108.75,-108.75 a 70.718276,70.718276 0 0 1 49.999996,-20.71093 H 77.677734 a 70.718276,70.718276 0 0 1 49.999996,20.71093 l 108.75,108.75 a 70.718276,70.718276 0 0 1 20.71094,50 v 115.7168 h 29.4707 V 357.32031 a 70.718276,70.718276 0 0 1 70.71094,-70.71094 h 255.53711 v -29.4707 h -115.7168 a 70.718276,70.718276 0 0 1 -50,-20.71094 l -108.75,-108.75 A 70.718276,70.718276 0 0 1 317.67969,77.677734 V -77.677734 a 70.718276,70.718276 0 0 1 20.71093,-49.999996 l 108.75,-108.75 a 70.718276,70.718276 0 0 1 50,-20.71094 h 115.7168 v -29.4707 H 357.32031 a 70.718276,70.718276 0 0 1 -70.71094,-70.71094 v -255.53711 h -29.4707 v 115.7168 a 70.718276,70.718276 0 0 1 -20.71094,50 l -108.75,108.75 a 70.718276,70.718276 0 0 1 -49.999996,20.71093 H -77.677734 a 70.718276,70.718276 0 0 1 -49.999996,-20.71093 l -108.75,-108.75 a 70.718276,70.718276 0 0 1 -20.71094,-50 v -115.7168 z"
     transform="matrix(0.04242424,0,0,0.04242424,31.999999,31.999999)" /></svg>
