<?xml version="1.0" encoding="UTF-8" standalone="no"?>
<svg
   width="480"
   height="480"
   viewBox="0 0 480 480"
   fill="none"
   version="1.1"
   id="svg10"
   sodipodi:docname="about.svg"
   inkscape:version="1.4 (e7c3feb100, 2024-10-09)"
   xmlns:inkscape="http://www.inkscape.org/namespaces/inkscape"
   xmlns:sodipodi="http://sodipodi.sourceforge.net/DTD/sodipodi-0.dtd"
   xmlns:xlink="http://www.w3.org/1999/xlink"
   xmlns="http://www.w3.org/2000/svg"
   xmlns:svg="http://www.w3.org/2000/svg"
   xmlns:rdf="http://www.w3.org/1999/02/22-rdf-syntax-ns#"
   xmlns:cc="http://creativecommons.org/ns#"
   xmlns:dc="http://purl.org/dc/elements/1.1/">
  <title
     id="title2">about</title>
  <defs
     id="defs14">
    <linearGradient
       id="linearGradient1"
       inkscape:collect="always">
      <stop
         style="stop-color:#8ae234;stop-opacity:1;"
         offset="0"
         id="stop1" />
      <stop
         style="stop-color:#1b7317;stop-opacity:0;"
         offset="1"
         id="stop2" />
    </linearGradient>
    <linearGradient
       inkscape:collect="always"
       xlink:href="#linearGradient1"
       id="linearGradient2"
       x1="79.489456"
       y1="71.860428"
       x2="478.26422"
       y2="478.26422"
       gradientUnits="userSpaceOnUse" />
  </defs>
  <sodipodi:namedview
     id="namedview12"
     pagecolor="#ffffff"
     bordercolor="#666666"
     borderopacity="1.0"
     inkscape:showpageshadow="2"
     inkscape:pageopacity="0.0"
     inkscape:pagecheckerboard="false"
     inkscape:deskcolor="#d1d1d1"
     showgrid="false"
     inkscape:zoom="1.1432292"
     inkscape:cx="118.96128"
     inkscape:cy="190.25057"
     inkscape:window-width="1894"
     inkscape:window-height="999"
     inkscape:window-x="0"
     inkscape:window-y="0"
     inkscape:window-maximized="1"
     inkscape:current-layer="svg10" />
  <path
     d="m 240,472.45291 c 64.18955,0 122.30278,-26.01845 164.36862,-68.08429 C 446.43446,362.30278 472.45291,304.18955 472.45291,240 c 0,-64.18955 -26.01845,-122.30278 -68.08429,-164.369083 C 362.30278,33.565308 304.18955,7.5470858 240,7.5470858 175.81045,7.5470858 117.69722,33.565308 75.630917,75.630917 33.565308,117.69722 7.5470858,175.81045 7.5470858,240 c 0,64.18955 26.0182222,122.30278 68.0838312,164.36862 C 117.69722,446.43446 175.81045,472.45291 240,472.45291 Z"
     fill="#280f89"
     stroke="#000000"
     stroke-width="11.6226"
     stroke-linejoin="round"
     id="path4"
     style="display:inline;fill:#8ae234;stroke:#4e9a06"
     inkscape:label="main" />
  <path
     id="path1"
     style="display:inline;fill:url(#linearGradient2);fill-opacity:1;stroke:none;stroke-opacity:1"
     inkscape:label="gradient"
     sodipodi:type="inkscape:offset"
     inkscape:radius="-18.104925"
     inkscape:original="M 240 7.546875 C 175.81045 7.546875 117.69716 33.56525 75.630859 75.630859 C 33.56525 117.69716 7.546875 175.81045 7.546875 240 C 7.546875 304.18955 33.56525 362.3033 75.630859 404.36914 C 117.69716 446.43498 175.81045 472.45313 240 472.45312 C 304.18955 472.45312 362.3033 446.43498 404.36914 404.36914 C 446.43498 362.3033 472.45313 304.18955 472.45312 240 C 472.45312 175.81045 446.43498 117.69716 404.36914 75.630859 C 362.3033 33.56525 304.18955 7.546875 240 7.546875 z "
     d="m 240,25.652344 c -59.29716,0 -112.75592,23.971406 -151.566406,62.78125 C 49.62375,127.24408 25.652344,180.70284 25.652344,240 c 0,59.29716 23.971535,112.75648 62.78125,151.56641 C 127.24405,430.37644 180.7028,454.34767 240,454.34766 c 59.2972,0 112.75651,-23.97135 151.56641,-62.78125 38.8099,-38.8099 62.78126,-92.26921 62.78125,-151.56641 0,-59.2972 -23.97123,-112.75595 -62.78125,-151.566406 C 352.75648,49.623879 299.29716,25.652344 240,25.652344 Z" />
  <path
     d="M 240,293.75357 V 107.79124"
     stroke="#ffffff"
     stroke-width="58.1132"
     stroke-linecap="round"
     stroke-linejoin="round"
     id="path6"
     sodipodi:nodetypes="cc"
     style="display:inline" />
  <path
     fill-rule="evenodd"
     clip-rule="evenodd"
     d="m 240,398.35739 c 16.04739,0 29.05661,-13.00923 29.05661,-29.05662 0,-16.04739 -13.00922,-29.05661 -29.05661,-29.05661 -16.04739,0 -29.05661,13.00922 -29.05661,29.05661 0,16.04739 13.00922,29.05662 29.05661,29.05662 z"
     fill="#ffffff"
     id="path8"
     style="display:inline;stroke-width:11.6226" />
  <metadata
     id="metadata2">
    <rdf:RDF>
      <cc:Work
         rdf:about="">
        <dc:title>about</dc:title>
      </cc:Work>
    </rdf:RDF>
  </metadata>
</svg>
