<svg version="1.1" viewBox="0 0 480 480" xmlns="http://www.w3.org/2000/svg">
 <path d="m219.33 1.0559c-1.7304 0.8719-1.9855 0.53304-2.4109 0.64699l-168.74 97.426c-1.3342 4.1062-1.6069 2.782-2.4109 4.1746v261.59c1.593 2.8299 1.6083 2.7828 2.4109 4.1714l10.122 8.2812 170.86 98.648c0.0891-0.33687 0.52909-0.0297 2.4079 0.64402h16.87c1.9937-0.57763 2.2569-0.90658 2.4078-0.64402 56.954-32.88 113.91-65.764 170.86-98.648l10.125-8.2812c1.353-3.3328 1.6058-2.7816 2.4075-4.1714v-261.59c-3.0126-3.5167-1.6046-2.7816-2.4075-4.1746l-168.74-97.426c-2.0757 0.00942-2.045-0.54989-2.4109-0.64699z" color="#000000" fill="#ff4f00" stroke-width="1.5786" style="-inkscape-stroke:none"/>
 <g>
  <path d="m250.96 17.808 5.4886-9.4981m163.26 106.93 5.4823-9.4981m-364.92 9.4981v12.666m0-12.666-5.4823-9.4981m174.23-87.928-5.4886-9.4981m27.421 19.242v-9.7428m168.75 110.09v-12.666m-190.69-87.684v-9.7428m0 9.7428-50.628 29.227m72.561-29.227h-21.932m190.69 97.426-168.75-97.426m-72.561 29.227-118.12 68.2m116.44-64.297 179.72 103.76m-103.78 57.723v-117.64m-75.938-46.762v2.9235m50.628 161.48v-132.25m-172.55 15.828v19.003l168.74 97.421h32.909l168.74-97.421v-19.003l-168.74-97.426h-32.909l-168.74 97.426m176.77 366.08h16.871m-18.983-1.2186 2.1121 1.2186m-170.86-98.648 168.75 97.426m21.096 0-2.112 1.2186m-18.983-1.2186h21.096m-21.096-2.4356v2.4356m-168.75-99.861v2.4356m358.59-2.4356v2.4356m-168.74 94.991v2.4356l168.74-97.426m-189.84 94.991h21.096m-31.22-5.8453 10.125 5.8453m-178.87-103.27 168.74 97.426m-168.74-335.15 168.74 97.428m41.345 237.72-10.125 5.8453m-31.22-243.57h41.345m-41.345 0v237.72m-168.74-359.02v261.59m168.74-359.02-168.74 97.426m210.08-97.426h-41.345m210.08 97.426-168.74-97.426m168.74 121.3v-23.871m0 23.871v237.72m-168.74-140.3v237.72l168.74-97.426m-168.74-140.3 168.74-97.428" fill="none" stroke="#b21209" stroke-width="9.6381"/>
  <text transform="translate(-2.6758 -2.6807)" x="67.786278" y="366.92557" fill="#b21209" font-family="Hack" font-size="200px" style="inline-size:0;white-space:pre" xml:space="preserve"><tspan x="67.786278" y="366.92557" font-family="Hack" font-weight="bold">F</tspan></text>
  <text x="286.64359" y="360.50323" fill="#b21209" font-family="Hack" font-size="200px" font-weight="bold" xml:space="preserve"><tspan x="286.64359" y="360.50323">G</tspan></text>
 </g>
</svg>
