<?xml version="1.0" encoding="UTF-8" standalone="no"?>
<svg
   width="98"
   height="96"
   version="1.1"
   id="svg1"
   sodipodi:docname="GitHub.svg"
   inkscape:version="1.4 (e7c3feb100, 2024-10-09)"
   xmlns:inkscape="http://www.inkscape.org/namespaces/inkscape"
   xmlns:sodipodi="http://sodipodi.sourceforge.net/DTD/sodipodi-0.dtd"
   xmlns:xlink="http://www.w3.org/1999/xlink"
   xmlns="http://www.w3.org/2000/svg"
   xmlns:svg="http://www.w3.org/2000/svg">
  <defs
     id="defs1">
    <linearGradient
       id="linearGradient3"
       inkscape:collect="always">
      <stop
         style="stop-color:#ffffff;stop-opacity:1;"
         offset="0"
         id="stop3" />
      <stop
         style="stop-color:#a9a4a5;stop-opacity:1;"
         offset="1"
         id="stop4" />
    </linearGradient>
    <linearGradient
       inkscape:collect="always"
       xlink:href="#linearGradient3"
       id="linearGradient4"
       x1="18.770443"
       y1="16.998867"
       x2="78.856697"
       y2="77.085121"
       gradientUnits="userSpaceOnUse" />
  </defs>
  <sodipodi:namedview
     id="namedview1"
     pagecolor="#505050"
     bordercolor="#ffffff"
     borderopacity="1"
     inkscape:showpageshadow="0"
     inkscape:pageopacity="0"
     inkscape:pagecheckerboard="1"
     inkscape:deskcolor="#505050"
     showgrid="false"
     inkscape:zoom="5.855728"
     inkscape:cx="32.105316"
     inkscape:cy="40.046259"
     inkscape:window-width="1894"
     inkscape:window-height="999"
     inkscape:window-x="0"
     inkscape:window-y="0"
     inkscape:window-maximized="1"
     inkscape:current-layer="svg1" />
  <path
     fill-rule="evenodd"
     clip-rule="evenodd"
     d="M48.854 0C21.839 0 0 22 0 49.217c0 21.756 13.993 40.172 33.405 46.69 2.427.49 3.316-1.059 3.316-2.362 0-1.141-.08-5.052-.08-9.127-13.59 2.934-16.42-5.867-16.42-5.867-2.184-5.704-5.42-7.17-5.42-7.17-4.448-3.015.324-3.015.324-3.015 4.934.326 7.523 5.052 7.523 5.052 4.367 7.496 11.404 5.378 14.235 4.074.404-3.178 1.699-5.378 3.074-6.6-10.839-1.141-22.243-5.378-22.243-24.283 0-5.378 1.94-9.778 5.014-13.2-.485-1.222-2.184-6.275.486-13.038 0 0 4.125-1.304 13.426 5.052a46.97 46.97 0 0 1 12.214-1.63c4.125 0 8.33.571 12.213 1.63 9.302-6.356 13.427-5.052 13.427-5.052 2.67 6.763.97 11.816.485 13.038 3.155 3.422 5.015 7.822 5.015 13.2 0 18.905-11.404 23.06-22.324 24.283 1.78 1.548 3.316 4.481 3.316 9.126 0 6.6-.08 11.897-.08 13.526 0 1.304.89 2.853 3.316 2.364 19.412-6.52 33.405-24.935 33.405-46.691C97.707 22 75.788 0 48.854 0z"
     fill="#fff"
     id="path1"
     style="stroke:none;stroke-opacity:1;stroke-width:4;stroke-dasharray:none;fill:#8c8c8c;fill-opacity:1" />
  <path
     id="path2"
     style="display:none;fill:url(#linearGradient4);stroke:none"
     sodipodi:type="inkscape:offset"
     inkscape:radius="-6.3262863"
     inkscape:original="M 48.853516 0 C 21.838516 0 9.4739031e-15 21.999797 0 49.216797 C 0 70.972797 13.992297 89.38825 33.404297 95.90625 C 35.831297 96.39625 36.720703 94.847922 36.720703 93.544922 C 36.720703 92.403922 36.640625 88.492969 36.640625 84.417969 C 23.050625 87.351969 20.220703 78.550781 20.220703 78.550781 C 18.036703 72.846781 14.800781 71.380859 14.800781 71.380859 C 10.352781 68.365859 15.125 68.365234 15.125 68.365234 C 20.059 68.691234 22.648437 73.417969 22.648438 73.417969 C 27.015438 80.913969 34.051813 78.796188 36.882812 77.492188 C 37.286813 74.314188 38.582031 72.114578 39.957031 70.892578 C 29.118031 69.751578 17.714844 65.514375 17.714844 46.609375 C 17.714844 41.231375 19.654516 36.830203 22.728516 33.408203 C 22.243516 32.186203 20.544844 27.134094 23.214844 20.371094 C 23.214844 20.371094 27.339625 19.067828 36.640625 25.423828 A 46.97 46.97 0 0 1 48.853516 23.792969 C 52.978516 23.792969 57.183406 24.364828 61.066406 25.423828 C 70.368406 19.067828 74.494141 20.371094 74.494141 20.371094 C 77.164141 27.134094 75.463516 32.186203 74.978516 33.408203 C 78.133516 36.830203 79.994141 41.231375 79.994141 46.609375 C 79.994141 65.514375 68.589922 69.669578 57.669922 70.892578 C 59.449922 72.440578 60.986328 75.372578 60.986328 80.017578 C 60.986328 86.617578 60.90625 91.915922 60.90625 93.544922 C 60.90625 94.848922 61.796656 96.397203 64.222656 95.908203 C 83.634656 89.388203 97.626953 70.972797 97.626953 49.216797 C 97.706953 21.999797 75.787516 9.4739031e-15 48.853516 0 z "
     d="m 48.853516,6.3261719 c -9.074291,0 -17.426266,2.8667574 -24.3125,7.6972661 0.953728,0.0097 1.95148,0.03353 3.220703,0.304687 2.577713,0.550698 5.946192,2.040736 9.822265,4.363281 -2.679316,0.590124 -5.424677,1.077394 0.814453,-0.177734 13.106148,-2.636569 -11.46114,1.885865 1.72461,-0.31836 13.18575,-2.204224 -11.518672,1.509731 1.732422,-0.259765 13.251094,-1.769496 -11.559922,1.12973 1.742187,-0.203125 13.302109,-1.332855 -11.592646,0.748287 1.746094,-0.146485 13.33874,-0.894771 -11.610948,0.367831 1.75,-0.08789 13.360948,-0.455721 -11.616754,-0.01507 1.751953,-0.03125 a 6.3269189,6.3269189 0 0 1 0.0078,0 c 3.766688,0 7.504359,0.516392 11.138671,1.300781 3.938367,-2.376546 7.346943,-3.882348 9.955079,-4.439453 C 71.199658,14.060611 72.179635,14.039612 73.125,14.027344 66.240164,9.1949421 57.895177,6.3261719 48.853516,6.3261719 Z M 16.335937,21.783203 c -6.162906,7.43384 -10.0097651,16.903414 -10.0097651,27.433594 0,5.259505 1.0101783,10.245012 2.7148437,14.884765 0.3568417,-0.298683 0.7254681,-0.621761 1.0312504,-0.802734 1.807838,-1.069942 2.810313,-1.066276 3.59375,-1.164062 0.542223,-0.06768 0.759129,-0.06054 1.009765,-0.06641 -2.036562,-4.266659 -3.287109,-9.381425 -3.287109,-15.458984 0,-5.555813 1.761825,-10.535289 4.513672,-14.603516 -0.474089,-2.565674 -0.533231,-6.081809 0.433593,-10.222656 z m 65.058594,0.08789 c 0.940331,4.091073 0.88192,7.563443 0.414063,10.109375 2.806664,4.111289 4.511718,9.124576 4.511718,14.628906 0,10.724586 -3.595956,18.787778 -9.314453,23.609375 -3.136479,2.644548 -6.630021,4.224758 -10.136718,5.273437 0.278067,1.423787 0.443359,2.926866 0.443359,4.525391 0,3.805743 -0.02249,5.249397 -0.04492,7.740234 C 81.45152,80.829801 91.300781,66.284307 91.300781,49.216797 a 6.3269189,6.3269189 0 0 1 0,-0.01953 c 0.0308,-10.478841 -3.786739,-19.906894 -9.90625,-27.326172 z" />
</svg>
