<svg version="1.1" viewBox="0 0 480 480" xmlns="http://www.w3.org/2000/svg">
 <path d="m237.71 109.11-1.7662 1.0153c1.4186 2.4643 1.3979 2.4323-3e-3 3e-3l-216.09 124.76 0.88272 1.5309-0.0066 3e-3 -0.88639-1.5309-1.7631 1.0217c-2.2883 3.974-1.526 2.65-2.2883 3.974v20.37c1.6469 2.3516 1.5324 2.6522 2.298 3.9773 5.4196 4.774 5.1836 6.1816 10.581 13.243l198.46 114.57v3e-3l1.7662 1.0185 2.2947-3.9804h3.1617l3.3615 1.9403 2.2948-3.9773 2.298 3.9773 3.3615-1.9403h3.1586l2.2947 3.9804 1.7662-1.0185-1.7082-2.9619h3e-3l1.7082 2.9588 198.45-114.57-2.298-3.9804h4.5927v-4.4767l8.2894-4.7861-2.298-3.9773h4.5927v-20.37h-4.5927l2.3044-3.9739-1.763-1.0217-0.88639 1.5309-7e-3 -3e-3 0.88272-1.5309-216.09-124.76c-2.0284 3.5143 0.0827 0.0827-3e-3 -3e-3l-1.763-1.0152-0.87996 1.5276c-0.21311 0.13503-0.92176 0.27556-1.4148 0.42253l-1.4117-0.42253zm-204.62 130.78c-13.54-209.24-13.54-209.24 0 0zm151.78-51.474 34.308 19.802h9e-5v3e-3c12.091 6.9808 29.546 6.9808 41.637 0v-3e-3l34.305-19.802 75.495 43.581-3.7321 2.1562c-5.3793 0.58052-10.692 2.0905-15.406 4.8118-5.8248 3.3629-9.9686 8.5533-9.9686 14.671v16.299c0 6.1177 4.1438 11.308 9.9686 14.671l8.989 5.1889-75.488 43.584-15.58-8.9954c-1.649-3.6363-4.6694-6.7715-8.5828-9.0307-9.6391-5.5651-21.757-6.1968-31.914-3.7677-5.0787 1.2145-9.7096 3.2117-13.346 6.1914-2.1743 1.7813-3.9256 4.0732-5.0568 6.6587l-15.486 8.9437-75.485-43.584 8.9856-5.1858v-3e-3c5.8246-3.3629 9.9686-8.5533 9.9686-14.671v-16.299h-4.5927l4.5927-3e-3c-3e-3 -6.3243-4.3561-11.423-9.9719-14.664-4.0535-2.3394-9.1344-3.6123-14.539-4.3155l-4.596-2.6558z" color="#000000" fill="#729fcf" stroke-width="1.6502" style="-inkscape-stroke:none"/>
 <path d="m266.19 330.02v4.0743m-52.389-4.0743v4.0743m184.69-80.462v4.0726m-52.389-4.0726v16.297m-212.21-16.297v16.297m-52.389-16.297v4.0726m184.69-80.455v4.0725m-52.389-4.0725v4.0725m43.399 153.79a19.335 11.163 0 0 0-3.5336-2.8008 19.335 11.163 0 0 0-30.876 2.8008m166.72-76.386a19.335 11.163 0 0 0-30.876-2.8008 19.335 11.163 0 0 0-3.5338 2.8008m-101.43 63.401a19.335 11.163 0 0 0-33.005 7.8932 19.335 11.163 0 1 0 38.668-1e-4 19.335 11.163 0 0 0-5.6629-7.8932m-128.77-63.401a19.335 11.163 0 0 0-34.411 0m166.72-76.383a19.335 11.163 0 0 0-34.411-9e-5m135.84 63.398a19.335 11.163 0 0 0-5.6629 7.893 19.335 11.163 0 1 0 38.668 0 19.335 11.163 0 0 0-33.005-7.8931m-92.435 84.28a26.195 15.124 0 0 0-7.6723-10.694m-44.718 10.694a26.195 15.124 0 1 0 52.389 0m-7.6723-10.694a26.195 15.124 0 0 0-44.718 10.694m-92.436-68.493a19.335 11.163 0 0 0 5.6629-7.8932 19.335 11.163 0 0 0-38.668 0 19.335 11.163 0 0 0 33.005 7.8931m104.96-76.383a19.335 11.163 0 0 0 33.005-7.893 19.335 11.163 0 0 0-38.668 0 19.335 11.163 0 0 0 5.6628 7.893m172.16 68.49a26.195 15.124 0 0 0-44.718-10.694m-7.6722 10.694a26.195 15.124 0 1 0 52.389 9e-5m-44.718-10.694a26.195 15.124 0 0 0-7.6723 10.694m0 16.297a26.195 15.124 0 0 0 7.6723 10.694m-5.5e-4 2e-3v-12.224m-87.909 59.239 19.11 11.036m-71.175-4.5832a26.195 15.124 0 1 0 52.389 0m-71.175 4.5832 19.109-11.036m-132.63-74.008a26.195 15.124 0 0 0 44.718 10.694m7.6723-10.694a26.195 15.124 0 0 0-52.389 0m44.718 10.694a26.195 15.124 0 0 0 7.6722-10.694m-7.6722 26.99a26.195 15.124 0 0 0 7.6722-10.694m246.35 13.751-26.462-15.279m5.5e-4 -2e-3a26.195 15.124 0 0 0 44.718-10.694m-184.69-80.455a26.195 15.124 0 0 0 7.6723 10.694m44.718-10.694a26.195 15.124 0 0 0-52.389-9e-5m7.6722 10.694a26.195 15.124 0 0 0 44.718-10.694m-44.718 26.99a26.195 15.124 0 0 0 37.044-9e-5m109.66 34.46 19.997-11.551m-18.525 62.64-15.878-9.165m-272.28-22.921a26.195 15.124 0 0 0 44.718 10.694m132.3-76.383a26.195 15.124 0 0 0 7.6723-10.694m-52.389 0a26.195 15.124 0 0 0 7.6722 10.694m-129.66 35.134 19.995 11.551m14.408 41.924v-12.224l-26.464 15.279m150.83 104.39-1.7656 1.0181v-7.1286m-7.0545-16.295-1.764 1.0182m0-225.08 52.919 30.554m95.262 54.995 44.98 25.977m22.932-13.241-216.09 124.76m1.7641 1.0181-1.7641-1.0181m52.919-182.82v-9.6782l-34.396 19.863m0 12.218v-12.218m-37.046 12.218v-12.218l-34.396-19.863m105.84 9.6782 86.879 50.157m78.061 8.9125-216.09 124.76m7.4967 4.3284-7.4967-4.3284m7.4967 16.04v-11.711m1.3234 10.949v7.1287m198.45-114.58-198.45 114.58m198.45-114.58v-7.1352m1.3234-12.474 7.4967-12.985m-7.4967 24.698v-11.713m-403.53-0.76055 44.98-25.977m95.262-54.995v9.6781m0-9.6781 52.919-30.554m0-9.1617v9.1617m-139.8 90.389 86.879-50.157m-60.86 98.792-15.88 9.165m129.66 76.894v20.37m-1.7657-21.388 1.7657 1.0182m0-2.0363-216.09-124.76m216.09 124.76-1.7657 1.0181m-7.0528 23.424v-7.1286m0 7.1286-1.7657-1.0181m1.3218-6.3663 9.2624 5.3482m9.2607-5.3482-9.2607 5.3482m10.584-6.1106-1.3234 0.76239m-9.2607-249.27 201.11 116.1m14.993-8.6568 1.7657 1.0166m1.764-1.0166-1.764 1.0166m-162.73-57.797-36.604 21.13m-37.046 0-36.604-21.13m274.75 56.78v20.37m-1.764-21.393 1.764 1.0231m-9.2607 25.715-1.3234 0.76055m10.584-6.1056-9.2607 5.3449m-411.47-17.058 201.11-116.1m0-17.314v17.314m-217.85 108.46 1.7657-1.0166m-1.7657 1.0166-1.764-1.0166m210.36 141.82v-11.711l7.4967-4.3284-216.09-124.76m7.4967 12.985-7.4967-12.985m7.4967 24.698v-11.713m1.3218 12.474v7.1352m198.45 114.58-198.45-114.58m198.45 114.58v-7.1287m1.3218 0.76239-1.3218-0.76239m10.584-265.82 216.09 124.76m1.7657-1.0231-1.7657 1.0231m-214.32-125.78 216.09 124.76m-437.49 1.0231 1.764-1.0231m-1.764 1.0231v20.37m3.5297-20.37 216.09-124.76m-216.09 124.76-1.7657-1.0231m7.4967 26.738-9.2607-5.3449m10.582 6.1056-1.3218-0.76056m210.36-150.47 1.764-1.0232m-3.5297 0 1.7657 1.0232m1.764-1.0232-1.764-1.0165m-217.85 125.78 216.09-124.76 1.7657-1.0165" fill="none" stroke="#000137" stroke-width="10"/>
</svg>
