<svg version="1.1" viewBox="0 0 480 480" xmlns="http://www.w3.org/2000/svg">
 <path d="m218.79 3.4688-0.4091 0.10868-174.94 101-0.4091 0.70959-0.43464 252.76 0.43464 0.24943v0.4123c-3e-3 1.9994 0 4.12 0 6.1562l0.4091 0.70639c62.773 36.517 124.74 74.539 187.63 110.85l0.4091 0.10867h17.493l0.40906-0.10867 177.13-102.27 0.4091-0.70638v-2.0552l10.087-5.8236 0.4091-0.70634v-259.58l-0.40906-0.70955-174.94-101-0.40909-0.10868z" color="#000000" fill="#29ef29"/>
 <path d="m436.59 130.03v234.83m-174.94-360.58h-42.861m217.8 101-174.94-101m174.94 125.75v-24.745m-174.94 125.75 174.94-101m-217.8-125.75-174.94 101m174.94 125.75h42.861v234.83m-217.8-360.58v24.745m382.25 240.89v2.5251m-174.94 101 174.94-101m-174.94 101-2.1863 1.2617h-17.496m30.178-9.8483 174.94-101m-185.44 107.06v2.5251m-21.868 0h21.868m-21.868 0 2.1863 1.2617m-12.683-9.8483h42.861l-10.496 6.0615m-21.868 0h21.868m-21.868 0v2.5251m-174.94-103.53v2.5251l174.94 101m-74.35-52.017 4.3743-2.5251m63.853-191.4h34.112l174.94-101v-19.695m-5.6867 9.8483 5.6867-9.8483-174.94-101h-34.112m28.427 9.8466 5.6851-9.8466m-28.427 9.8466-5.6851-9.8466-174.94 101v19.695m5.6867-9.8466-5.6867-9.8483m48.508 239.65 10.097-5.8308m86.591-235.33-6.0877 54.015m-6.5377 3.7754 6.0861-54.015m-29.844 58.17 7.9761-70.795m28.432 6.2873-0.0226 2.5627m37.966 19.019 7.9762-70.794m-33.658 95.184 3.0438-27.008m-53.811 89.144v210.59m-48.109-238.37v210.59m0-213.11v2.5251m52.483 235.84 9.03-5.2138m-9.03-202.85v208.06m21.867-119.14-12.836 113.92m25.077-222.54-3.0438 27.007m-35.438-7.315h4.3743m34.132-22.254-0.0226 2.5627m-22.338 198.24 10.097-5.8308m86.591-235.33-6.0877 54.015m-6.5377 3.7753 6.086-54.015m-29.844 58.168 7.9761-70.794m28.432 6.2873-0.0226 2.5627m37.966 19.019 7.9761-70.795m-33.657 95.185 3.0438-27.008m-164-18.963-0.0226 2.5627m99.722 316.64 10.496 6.0615m-122.46-77.268 48.109 27.776m26.241-197.96v213.11l37.176 21.462v-213.11m0.43694-0.25208v213.11m-0.43694 0.25208 0.43694-0.25208m4.3743-230.28-4.3743 2.5251v14.645m207.74-114.89v-13.129l-174.94-101m0 8.0809v-8.0809h-22.742l-174.94 101m174.93-92.922v-8.0809m-174.94 101v13.129m0 8.0809v-8.0809l-5.6867-3.2827-4.3727 2.5251v14.646m75.243 1.985-1.8852-1.4123m47.803-47.801-65.298 37.701m65.28-37.739 0.0188 0.03815m-0.0188-0.03815 21.868 12.625m-21.546-17.813-0.32226 5.1876m28.426 8.8877-6.5393 3.7753m6.5393-3.7753-1.8607-3.975m-4.6967 7.7127 0.019 0.0377m0.30453-5.2252-0.32227 5.1876m6.5819-6.3004-1.8852-1.4123m47.803-47.8-65.298 37.699m65.28-37.739 0.0189 0.03925m-0.0189-0.03925 65.645 37.901m-65.323-43.088-0.32227 5.1876m-30.573 68.202-0.0226 0.0114m0.0226-0.0114 21.868 12.625m-17.214-15.312-4.6541 2.6871m-101.94 58.856 2.1879-1.2618m-2.1879 3.7868 48.109 27.776 2.1863-3.7868m-48.107-27.776-2.1879 3.7868m86.591 8.0842-34.107 19.692m-2.188-3.7868 2.188 3.7868m34.107-19.692-1.8607-3.9766m1.8852 1.4139-1.8852-1.4139m47.803-47.8-65.298 37.699m65.28-37.737 0.0189 0.0381m-0.0189-0.0381 21.868 12.625m-21.546-17.813-0.32227 5.1876m28.425 8.8877-6.5393 3.7754m6.5394-3.7756-1.8606-3.975m-4.6967 7.7127 0.019 0.0381m0.30415-5.2252-0.32227 5.1876m6.5819-6.3004-1.8852-1.4123m47.803-47.801-65.298 37.701m65.28-37.739 0.019 0.03815m-0.019-0.03815 65.645 37.901m-65.323-43.088-0.32228 5.1876m-30.573 68.202-0.0226 0.0114m0.0226-0.0114 21.868 12.624m-17.214-15.311-4.6541 2.6871m-176.29 92.235-12.836 113.92m25.077-222.54-3.0438 27.008m3.0438-27.008-34.107 19.692m34.107-19.692-1.8607-3.975m-32.247 231.73 9.03-5.2138m124.8 87.026v7.0695m-174.94-107.57v6.5655l174.94 101m-63.417-43.682 25.804 14.897m-100.15-57.823 25.804 14.898m74.35-169.68 37.176 21.462 0.43691-0.25208m207.74-119.94-174.94-101m-22.742 0h22.742m-22.742 0-174.94 101m-10.059 18.939 10.059-5.8079m63.299 6.3806-36.621 21.142m14.753-33.767 21.868 12.625m48.107-53.027-69.976 40.401m69.976-40.401 21.868 12.625m4.3743-2.5251-4.3743 2.5251m-17.494-15.15 21.868 12.625m48.107-53.027-69.976 40.401m69.976-40.401 69.977 40.401-69.977 40.401m-21.867-12.625 21.867 12.625m-21.867-12.625-4.3743 2.5251 21.868 12.625-69.977 40.401m-21.867-12.625 21.867 12.625m-21.867-12.625-34.433 19.88 48.107 27.776m34.435-19.881-34.435 19.881m12.566-32.505 21.868 12.624m48.107-53.025-69.976 40.401m69.976-40.401 21.868 12.625m4.3743-2.525-4.3743 2.525m-17.494-15.15 21.868 12.625m48.107-53.027-69.976 40.401m69.976-40.401 69.977 40.401-69.977 40.401m-21.867-12.625 21.867 12.625m-21.867-12.625-4.3743 2.5251 21.868 12.625-69.977 40.4m-21.867-12.625 21.867 12.625m-21.867-12.625-36.621 21.143m-137.33-79.791-0.43695 0.25208m37.174 234.58 4.3743-2.5251m0-208.06v208.06m-4.3743-210.59 4.3743 2.5251m-41.548-23.987 37.174 21.462m-37.174 191.65v-213.11m37.174 21.462v213.11m-37.174-21.462 37.174 21.462" fill="none" stroke="#156a15" stroke-width="10"/>
</svg>
